<svg width="10" height="11" viewBox="0 0 10 11" fill="none" xmlns="http://www.w3.org/2000/svg">
<path d="M4.90262 2.66637L5.22662 3.42419C5.24858 3.49009 5.30899 3.52853 5.3694 3.53402L6.19312 3.6109C6.36884 3.62737 6.43474 3.84154 6.30844 3.95686L5.6879 4.50052C5.63848 4.54445 5.61651 4.61035 5.63299 4.67075L5.8142 5.478C5.85264 5.64823 5.67143 5.78003 5.51767 5.69216L4.80927 5.26932C4.75435 5.23637 4.68296 5.23637 4.62805 5.26932L3.91965 5.69216C3.77138 5.78003 3.58467 5.64823 3.62311 5.478L3.80433 4.67075C3.8208 4.61035 3.79884 4.54445 3.74941 4.50052L3.12888 3.95686C2.99708 3.84154 3.06847 3.62737 3.2442 3.6109L4.06792 3.53402C4.13382 3.52853 4.18873 3.49009 4.21619 3.42968L4.54018 2.67186C4.60608 2.50712 4.83123 2.50712 4.90262 2.66637Z" stroke="#F0C932" stroke-width="0.549146" stroke-miterlimit="10" stroke-linecap="round" stroke-linejoin="round"/>
<path d="M8.45414 4.27243C8.46834 2.21009 6.80799 0.52673 4.74565 0.512537C2.68331 0.498344 0.999945 2.1587 0.985751 4.22103C0.971558 6.28337 2.63191 7.96674 4.69425 7.98093C6.75659 7.99512 8.43995 6.33477 8.45414 4.27243Z" stroke="#F0C932" stroke-width="0.549146" stroke-miterlimit="10" stroke-linecap="round" stroke-linejoin="round"/>
<path d="M4.21068 7.94366L3.28263 10.2775L2.10745 8.93212L0.33371 9.09687L1.50888 6.15344" stroke="#F0C932" stroke-width="0.549146" stroke-miterlimit="10" stroke-linecap="round" stroke-linejoin="round"/>
<path d="M5.22113 7.94366L6.15468 10.2775L7.32436 8.93212L9.10359 9.09687L7.92293 6.15344" stroke="#F0C932" stroke-width="0.549146" stroke-miterlimit="10" stroke-linecap="round" stroke-linejoin="round"/>
</svg>
